<?xml version="1.0" standalone="no"?>
<!DOCTYPE svg PUBLIC "-//W3C//DTD SVG 20010904//EN"
 "http://www.w3.org/TR/2001/REC-SVG-20010904/DTD/svg10.dtd">
<svg version="1.0" xmlns="http://www.w3.org/2000/svg"
 width="218.000000pt" height="229.000000pt" viewBox="0 0 218.000000 229.000000"
 preserveAspectRatio="xMidYMid meet">
<metadata>
Created by potrace 1.15, written by Peter Selinger 2001-2017
</metadata>
<g transform="translate(0.000000,229.000000) scale(0.100000,-0.100000)"
fill="#000000" stroke="none">
<path d="M970 205 l0 -205 184 0 183 0 19 53 19 52 69 0 69 0 17 -50 c17 -50
17 -50 64 -53 36 -2 47 0 44 11 -1 7 -37 100 -78 205 l-75 193 -40 -3 -40 -3
-77 -195 c-42 -107 -77 -187 -78 -177 0 15 -11 17 -95 17 l-95 0 0 70 0 70 70
0 c39 0 70 4 70 9 0 5 3 16 6 25 5 14 -5 16 -70 16 l-76 0 0 60 0 60 90 0 c89
0 90 0 90 25 l0 25 -135 0 -135 0 0 -205z"/>
<path d="M1600 385 c0 -23 3 -25 50 -25 l50 0 0 -180 0 -180 45 0 45 0 0 180
0 180 54 0 c49 0 54 2 58 25 l5 25 -153 0 -154 0 0 -25z"/>
<path d="M1963 390 c-39 -23 -53 -48 -53 -93 0 -47 28 -79 98 -110 33 -15 65
-34 72 -41 18 -22 8 -59 -19 -72 -20 -10 -34 -9 -79 8 -53 20 -56 20 -69 2
-23 -32 -15 -51 27 -68 82 -33 188 -16 224 36 19 27 21 107 3 132 -7 10 -44
34 -83 55 -57 30 -70 41 -72 64 -4 37 28 49 82 31 52 -19 53 -18 71 16 l16 31
-35 14 c-51 22 -144 19 -183 -5z"/>
</g>
</svg>
